/* XPM */
static char *a0329c58b8144416eaacf9fdf52b411547Eh6943Y7eo7usb[] = {
/* columns rows colors chars-per-pixel */
"64 64 209 2 ",
"   c None",
".  c #18120F",
"X  c #1C1612",
"o  c #1C1816",
"O  c #0E0B09",
"+  c #221A16",
"@  c #261E19",
"#  c #291D19",
"$  c #391B16",
"%  c #33180C",
"&  c #2D231D",
"*  c #34251D",
"=  c #312620",
"-  c #352922",
";  c #392C26",
":  c #3E3229",
">  c #3E3D3C",
",  c #282A2E",
"<  c #441E1F",
"1  c #45291C",
"2  c #432121",
"3  c #432B2B",
"4  c #472E28",
"5  c #4B3225",
"6  c #43342B",
"7  c #4A372D",
"8  c #4C3C32",
"9  c #483836",
"0  c #553C34",
"q  c #572F29",
"w  c #723435",
"e  c #544136",
"r  c #564439",
"t  c #5C4539",
"y  c #5D493C",
"u  c #5E4234",
"i  c #4F463F",
"p  c #624434",
"a  c #644A3D",
"s  c #66493B",
"d  c #313B47",
"f  c #753F40",
"g  c #384452",
"h  c #474746",
"j  c #554C45",
"k  c #585654",
"l  c #56524C",
"z  c #6A4E41",
"x  c #644E41",
"c  c #7B4445",
"v  c #6C5345",
"b  c #6B5446",
"n  c #735445",
"m  c #745A4B",
"M  c #7B5C4B",
"N  c #775748",
"B  c #685D5A",
"V  c #755C54",
"C  c #7D604F",
"Z  c #7C6151",
"A  c #716359",
"S  c #755F60",
"D  c #656362",
"F  c #6D6D6B",
"G  c #757473",
"H  c #7C7B79",
"J  c #7C7067",
"K  c #883C3D",
"L  c #894949",
"P  c #835D4D",
"I  c #9A5A5B",
"U  c #8C4F4B",
"Y  c #A85758",
"T  c #B95A5B",
"R  c #A94F50",
"E  c #836453",
"W  c #8B6453",
"Q  c #846857",
"!  c #8B6956",
"~  c #866A58",
"^  c #8B6C5A",
"/  c #926856",
"(  c #94715D",
")  c #8B6857",
"_  c #BE5F60",
"`  c #947561",
"'  c #9A7561",
"]  c #9C7965",
"[  c #937A6B",
"{  c #9A7D6A",
"}  c #977979",
"|  c #A76565",
" . c #A37D67",
".. c #A47E69",
"X. c #AB6E6F",
"o. c #C36364",
"O. c #CF6A6B",
"+. c #CA6667",
"@. c #D06A6B",
"#. c #9C816F",
"$. c #84817C",
"%. c #9A8578",
"&. c #A5826C",
"*. c #AB836C",
"=. c #AA8671",
"-. c #AE8973",
";. c #A78976",
":. c #B48C74",
">. c #BA8E75",
",. c #B38B75",
"<. c #BD9077",
"1. c #BC937B",
"2. c #B5907A",
"3. c #B0866F",
"4. c #C2957C",
"5. c #C2987F",
"6. c #C89A7F",
"7. c #887F80",
"8. c #8C8C8B",
"9. c #898884",
"0. c #978787",
"q. c #9A9895",
"w. c #9B948B",
"e. c #A78A86",
"r. c #A89487",
"t. c #B19992",
"y. c #A4A39C",
"u. c #BAA597",
"i. c #8EA1BC",
"p. c #A4A2A1",
"a. c #ABAAA8",
"s. c #B7ACA7",
"d. c #B4B4AD",
"f. c #BAB1AB",
"g. c #BDBEBB",
"h. c #BAB9B5",
"j. c #AFB0AB",
"k. c #C59C82",
"l. c #C99D82",
"z. c #D19D85",
"x. c #CCA186",
"c. c #CDA48A",
"v. c #D2A287",
"b. c #D3A58A",
"n. c #D6A88D",
"m. c #DAAA8E",
"M. c #CBA792",
"N. c #DCAD91",
"B. c #D7AE94",
"V. c #DFB093",
"C. c #E3B295",
"Z. c #E7B799",
"A. c #E8B799",
"S. c #ECBA9C",
"D. c #F1BE9F",
"F. c #E4AF93",
"G. c #CCBDBD",
"H. c #C4BDBF",
"J. c #D3BFBA",
"K. c #CAB8A8",
"L. c #F3BFA0",
"P. c #E9BCA0",
"I. c #C4C5BE",
"U. c #DDC1B5",
"Y. c #D6C0B8",
"T. c #EEC5AF",
"R. c #F5C2A2",
"E. c #FAC5A5",
"W. c #FFC8A7",
"Q. c #F4C6AC",
"!. c #F9C7AA",
"~. c #FFC9A8",
"^. c #E4C3B3",
"/. c #EAC6B1",
"(. c #FFCFB1",
"). c #FBD4BA",
"_. c #8BA7C9",
"`. c #87A3C5",
"'. c #93B1D5",
"]. c #9AB2D1",
"[. c #A1B4CF",
"{. c #A5B5CD",
"}. c #ACB6CA",
"|. c #BBBAC4",
" X c #B3B8C7",
".X c #C4BCC0",
"XX c #CDCDC5",
"oX c #C7C7C7",
"OX c #D3D3CB",
"+X c #D5D5D5",
"@X c #DBDCD4",
"#X c #DADAD8",
"$X c #CFCDCD",
"%X c #FDDBC3",
"&X c #E3DFDA",
"*X c #E7D5C4",
"=X c #DEE0D8",
"-X c #E3E4DC",
";X c #EBE8DD",
":X c #FAE8D7",
">X c #FCE0CA",
",X c #EBECE4",
"<X c #E9E8E7",
"1X c #EFF0E8",
"2X c #FAF2E5",
"3X c #F3F4EB",
"4X c #F9F6EC",
"5X c #F9FBF2",
"6X c #F6F7F8",
/* pixels */
"                                              o & , d g g g g d , #                                                             ",
"                                        : b ` 1.M.i.`._._._._.`.a.x.=.Q r @                                                     ",
"                                  & m ,.C.R.~.~.^.].'.'.'.'.'.'. X!.~.W.S.l.~ 6                                                 ",
"                              = Q v.E.~.~.~.~.W.U.].'.'.'.'.'.'.[.Q.W.~.~.~.W.C.] :                                             ",
"                            b x.E.~.~.W.~.~.~.W.J.'.'.'.'.'.'.'.].^.W.~.~.W.~.~.~.N.Z X                                         ",
"                        + ` D.~.~.W.~.~.~.~.~.W.J.'.'.'.'.'.'.'.'.J.W.~.~.~.~.W.~.~.R.=.-                                       ",
"                      + ( E.~.W.~.~.~.~.~.~.~.W.G.'.'.'.'.'.'.'.'..XW.W.~.~.~.~.~.W.~.~.k.8                                     ",
"                    . C Z.~.~.~.~.~.~.~.~.W.W.W.G.'.'.'.'.'.'.'.'. X!.W.W.W.~.~.~.~.W.~.~.c.7                                   ",
"                    y l.E.~.~.~.~.~.W.W.W.W.~.!..X'.'.'.'.'.'.'.'.[.^.Q.!.W.W.W.~.~.~.W.~.~.5.=                                 ",
"                  - ..C.~.~.~.~.W.W.W.!./.J.|.}.].'.'.'.'.'.'.'.'.'.].{.|.J.T.!.W.W.~.~.W.~.~.]                                 ",
"                  n 4.D.~.~.~.W.~.T.G. X].'.'.'.'.'.'.'.'.'.'.'.'.'.'.'.'.'.].|.U.!.W.~.~.W.~.A.e                               ",
"                &  .v.E.~.~.W.~.J.[.'.'.'.'.'.'.'.'.'.'.'.'.'.'.'.'.'.'.'.'.'.'.].G.~.W.~.~.~.~.&.                              ",
"                y >.N.~.~.~.W.~.U.[.'.'.'.'.'.'.'.'.'.'.'.'.'.'.'.'.'.'.'.'.'.'.{.^.W.W.~.~.W.~.C.6                             ",
"                Q 4.S.~.~.~.~.W.W.^.{.'.'.'.'.'.'.'.'.'.'.'.'.'.'.'.'.'.'.'.'.{.^.W.W.~.~.~.~.~.E.Q                             ",
"              & ..4.R.~.~.~.~.~.W.W.^.{.'.'.'.'.'.'.'.'.'.'.'.'.'.'.'.'.'.'.[.^.W.W.~.~.~.~.~.W.~.:.                            ",
"              8 ,.l.E.~.~.~.~.~.~.W.W./.}.'.'.'.'.'.'.'.'.'.'.'.'.'.'.'.'.[.U.W.W.~.~.~.~.~.~.~.~.C.:                           ",
"              a >.v.E.~.~.~.~.~.~.~.W.W.T.}.'.'.'.'.'.'.'.'.'.'.'.'.'.'.[.U.W.W.~.~.~.~.~.~.~.~.~.R.x                           ",
"              M >.m.~.~.~.~.~.~.~.~.~.W.W.T. X'.'.'.'.'.'.'.'.'.'.'.'.].U.W.W.~.~.~.~.~.~.~.~.~.~.~.Q                           ",
"              ! >.m.~.~.~.~.~.~.~.~.~.~.W.W.Q. X'.'.'.'.'.'.'.'.'.'.].Y.~.W.~.~.~.~.~.W.~.~.~.~.W.~.&.                          ",
"            X ( <.C.~.~.~.W.~.~.~.~.~.~.~.W.W.Q.|.'.'.'.'.'.'.'.'.].Y.~.~.~.~.E.E.E.~.~.~.~.W.~.~.~.:.                          ",
"            +  .<.C.~.W.~.~.~.S.C.n.C.D.~.~.~.W.Q.|.'.'.'.'.'.'.].J.W.~.~.m.] M M M ! *.N.E.~.~.~.~.l.@                         ",
"            # ..<.C.~.~.E.x.! p 1 1 1 u ( N.~.~.W.Q..X].'.'.'.].G.!.~.R...5 % % 5 a v m m l.~.~.~.~.m.&                         ",
"            - *.<.C.~.D.` 7 5 p s p 0 * % 5  .R.~.W.!..X].'.].G.!.~.E.( $ $ a 1.A.R.E.E.S.D.W.~.~.~.V.&                         ",
"            - *.<.C.~.Z.1.m.A.D.L.D.S.m.*.s 5 x.~.~.W.!.G.].H.!.W.~.k.1 p ,.R.~.~.~.~.~.~.~.~.~.~.~.V.&                         ",
"            - *.<.C.~.~.~.~.~.~.~.~.~.~.~.R.l.&.S.~.~.W.!.^.!.W.~.C.1.*.A.~.~.~.~.~.~.~.~.~.~.~.~.~.V.&                         ",
"            - *.<.C.~.~.~.~.~.~.~.~.~.~.~.~.~.S.E.~.~.~.W.W.W.~.~.R.E.~.~.~.W.~.~.~.~.~.~.~.~.~.~.~.V.&                         ",
"            +  .<.C.~.~.~.W.~.~.~.~.~.~.W.~.~.~.~.W.~.~.~.~.~.~.W.~.~.~.~.~.~.~.~.~.~.~.W.~.~.~.~.~.v.&                         ",
"            +  .<.C.~.~.W.~.~.R.Z.C.S.~.~.~.~.~.~.~.~.~.~.~.~.~.~.~.~.~.W.~.~.L.A.Z.D.~.~.~.W.~.~.~.k.                          ",
"            X ( <.N.~.W.~.E.:.y 6 j A [ N.~.E.E.~.~.~.~.~.~.~.~.~.~.~.L.F.C.` r ; - 8 ^ C.~.~.W.~.~.:.                          ",
"              ! >.m.~.~.E.^ 9 H g.XXI.q.A 2.C.b.E.~.~.~.~.~.~.~.~.~.E.z.3.j k 8.y.q.G > 8 1.W.~.W.~.&.                          ",
"              C <.m.~.~.&.j g.3X5X5X5X4XXXJ =.b.R.~.~.~.~.~.~.~.~.~.E.4.V y.,X1X3X5X3XOXG ; 1.~.~.~.! O & +                     ",
"      ; r : O v <.n.~.n.i d.5X5X5X@Xq.p.;X-Xw.x.E.~.~.~.~.~.~.~.~.~.E.;.d.5X4Xg.$.d.3X5X-XH : n.~.R.m &.C.5.r                   ",
"    0 *.>.*.x t >.v.W.~ D ,X5X5X5X3X$.h 8.3X,XK.E.~.~.~.~.~.~.~.~.~.D.u.3X5X5X@Xl k h.5X5XXXl 1.~.A.Z S.R.A.n.8                 ",
"  - ( E E *.,.v *.l.E.1.y.5X5X;X@XOXh > G @X5X2X~.W.~.~.~.~.~.~.~.W.!.;X5XXXoX8.o D q.4X5X,XK.R.~.N.Z m.E n -.&.                ",
"  z ( W M a *.m ] 4.R.E.*X5X5X@XF D , k H @X5X2X(.~.~.~.~.~.~.~.~.W.~.2X5Xd.F k h G p.4X5X4X).W.~.k.Z m ' v.*.n.6               ",
"X ^ >.>.:.m v C ! 4.S.W.%X4X5X3Xw.G G G q.1X5X:X~.W.~.~.~.~.~.~.~.W.~.:X5X-X8.G G 9.+X5X5X2X(.W.~.=.6 z Q -.Z.R.m               ",
"# ..<.>.' N t v M <.C.~.~.:X5X5X,Xj.q.j.<X5X2X).W.W.~.~.~.~.~.~.~.W.W.%X4X5X,XI.g.-X5X5X5X>X~.W.~.! 4 W W n 1.~.`               ",
"- *.<.*.z W P a v :.m.~.W.(.:X&X=X-X-X,X3X2X).~.W.~.~.~.~.~.~.~.~.~.W.~.%X;X-X@X@X@XOXXX*X~.W.~.E.Z t / / P ! W.{               ",
"- *.<.( z / W M v *.v.E.~.W.~.B.;.%.r.u./.(.W.W.~.~.~.~.~.~.~.~.~.~.~.W.~.P.r.#.{ #.;.c.R.~.~.~.D.^ ( W / P M R.]               ",
"+  .<.M n / W E v ] 6.R.~.~.W.~.W.E.R.E.W.W.W.~.W.~.~.W.~.~.~.~.~.~.~.~.W.~.~.~.~.~.~.~.~.W.~.~.C.` <.E / M Z E.Q               ",
". ! <.M n / W M m ^ 4.D.~.~.~.W.~.~.~.~.~.~.~.~.~.D.m.~.~.~.~.~.~.~.~.~.~.~.~.~.~.~.~.~.~.~.~.~.v.m E W / s &.R.y               ",
"  a <.E s W W P t M 4.Z.~.~.~.~.~.~.~.~.~.~.~.W.~.Z.2.~.~.~.~.~.W.~.~.W.~.~.~.~.~.~.~.~.~.~.~.~.-.; n n s m A.v.&               ",
"  - ..*.t s a s 7 t >.m.~.~.~.~.~.~.~.~.~.~.~.~.S.C.E.~.W.W.~.~.~.x.A.~.~.~.~.~.~.~.~.~.~.~.~.~.` m ..,.l.D.E.Z                 ",
"    y :.,.*.*.^ z a *.v.E.~.~.~.~.~.~.~.~.~.~.~.:.l.L.R.~.~.W.R.E.1.m.~.~.~.~.~.~.~.~.~.~.~.~.E.~ N.~.~.~.E.] +                 ",
"      y ..<.<.<.>.M ..6.R.~.~.~.~.~.~.~.~.~.~.~.v.N.1.1.E.~.S.=.v.R.E.~.~.~.~.~.~.~.~.~.~.~.~.S.Q A.~.~.S.~ X                   ",
"        - v ] 3.>.! ' 4.S.~.~.~.~.~.~.~.~.~.~.~.W.W.E.D.W.~.E.D.R.~.~.W.~.~.~.~.~.~.~.~.~.~.~.Z.Z R.E.x.x                       ",
"            + 6 t r E <.C.~.~.~.~.~.~.~.~.~.~.W.~.~.~.~.~.~.~.~.~.~.~.~.~.~.~.~.~.~.~.W.~.~.~.n.- M m -                         ",
"                    a >.b.W.~.W.~.~.~.~.~.~.~.~.~.~.~.~.~.E.E.E.R.R.R.R.R.D.D.D.S.A.E.~.~.~.~.l.o                               ",
"                    7 :.l.E.~.~.E.Z.C.c.x.1.2.=.=.=.{ { { [ [ [ %.r.r.r.u.r.J z 0 p C.~.~.~.~.-.                                ",
"                    + ' 4.D.~.~.C.8 2 ; B 8.p.h.g.g.oXoXoX$X+X+X#X#X$Xg.q.B 3 < < P E.~.~.~.R.b                                 ",
"                      t >.C.~.~.E.Z $ 2 3 9 B H p.oX&X<X<X<X+XH.p.7.V 3 # $ < < 4 x.~.W.~.~.4.@                                 ",
"                      X Q b.W.~.~.n.7 3 2 $ $ q L Y | | I I I I Y Y R L w < 9 9 ! E.~.W.~.Z.t                                   ",
"                        = &.R.~.~.~.;.q.8.9 K T +.@.@.O.@.@.@.@.@.@.O.+.T w 7.$.C.~.W.~.R.Z                                     ",
"                          6 4.W.~.~.D.t.+X8.f @.@.O.O.O.@.@.@.@.O.O.O.@.+.f k l.~.~.~.E.` .                                     ",
"                            7 x.~.~.~.Z.e.8.B U _ O.O.O.O.O.@.O.@.@.@.T c 9 &.E.~.~.E...@                                       ",
"                              8 x.~.~.~.C.t.+Xd.0.| _ o.o.+.+.o.T Y U S D { R.~.~.R.` @                                         ",
"                                6 5.~.~.~.A.u.+X6X<XXXf.t.e.} } } q.p.9.2.R.~.~.S.Q                                             ",
"                                  - *.E.~.~.R.M.s.+X3X6X6X6X6X<X#Xj.%.c.E.~.~.N.b                                               ",
"                                    + Q A.~.~.W.S.c.u.s.f.d.a.r.;.k.D.~.~.W.1.8                                                 ",
"                                        t l.W.~.~.~.E.S.A.Z.Z.S.E.~.~.~.S.` &                                                   ",
"                                          = ( Z.~.~.~.~.~.~.~.~.~.~.E.l.x                                                       ",
"                                              8 =.S.~.~.~.~.~.~.~.N.! =                                                         ",
"                                                  e ] n.S.R.S.c.^ :                                                             ",
"                                                      & r b y &                                                                 "
};
