/* XPM */
static char *s62aaBID30MT7bo_png[] = {
/* columns rows colors chars-per-pixel */
"64 64 204 2 ",
"   c None",
".  c #0A0F22",
"X  c #0B1023",
"o  c #161829",
"O  c #1D1C31",
"+  c #1F212D",
"@  c #2A2626",
"#  c #332D27",
"$  c #38332C",
"%  c #262339",
"&  c #312D35",
"*  c #3B393B",
"=  c #443A32",
"-  c #493D36",
";  c #423F39",
":  c #423730",
">  c #553738",
",  c #63383B",
"<  c #6D383E",
"1  c #45433A",
"2  c #4B433B",
"3  c #4D4A3D",
"4  c #444136",
"5  c #544A3F",
"6  c #52453C",
"7  c #2F2B42",
"8  c #363148",
"9  c #352F46",
"0  c #4D4C43",
"q  c #4F4E49",
"w  c #484744",
"e  c #534C42",
"r  c #5B4D44",
"t  c #594945",
"y  c #555244",
"u  c #5C5246",
"i  c #5C534C",
"p  c #5D5A4B",
"a  c #54534E",
"s  c #544B55",
"d  c #544A56",
"f  c #565151",
"g  c #5B5553",
"h  c #5B5955",
"j  c #5C525B",
"k  c #5E5E5B",
"l  c #744A4A",
"z  c #605147",
"x  c #64554B",
"c  c #68574C",
"v  c #6A594E",
"b  c #754F50",
"n  c #655C52",
"m  c #6B5C51",
"M  c #61575E",
"N  c #645B59",
"B  c #665853",
"V  c #715E52",
"C  c #785454",
"Z  c #674744",
"A  c #646256",
"S  c #6C645C",
"D  c #6C695C",
"F  c #686457",
"G  c #726457",
"H  c #695E62",
"J  c #656360",
"K  c #6D6362",
"L  c #6C6A62",
"P  c #716661",
"I  c #736B63",
"U  c #796E69",
"Y  c #736C68",
"T  c #767466",
"R  c #72716D",
"E  c #7C746C",
"W  c #7D7B6C",
"Q  c #7B7566",
"!  c #757573",
"~  c #7B7773",
"^  c #7C7B73",
"/  c #7F7E7B",
"(  c #814E4F",
")  c #815355",
"_  c #A4565E",
"`  c #AB5A62",
"'  c #817E6E",
"]  c #80756D",
"[  c #857B72",
"{  c #8A7D76",
"}  c #8C7F78",
"|  c #847671",
" . c #BA626B",
".. c #C0646E",
"X. c #CC6B74",
"o. c #C56670",
"O. c #D36F79",
"+. c #D06D77",
"@. c #D5707A",
"#. c #858374",
"$. c #898575",
"%. c #84837D",
"&. c #8C8A7A",
"*. c #8C8478",
"=. c #93857D",
"-. c #918E7D",
";. c #9A887D",
":. c #98877C",
">. c #93917F",
",. c #8B8A88",
"<. c #888582",
"1. c #968781",
"2. c #958C82",
"3. c #9A8A83",
"4. c #908F8A",
"5. c #959381",
"6. c #9C9A86",
"7. c #96928D",
"8. c #9E9C8A",
"9. c #9A9685",
"0. c #959493",
"q. c #9C9C99",
"w. c #9B9A94",
"e. c #A19D8B",
"r. c #BA9F8E",
"t. c #A09F9A",
"y. c #A4A28D",
"u. c #BBA08F",
"i. c #A6A491",
"p. c #AAA694",
"a. c #ACAA95",
"s. c #A5A49D",
"d. c #ACAB9D",
"f. c #A8A799",
"g. c #BCA190",
"h. c #B1AE9A",
"j. c #B4B19B",
"k. c #B8B69F",
"l. c #A5A3A1",
"z. c #ADACAB",
"x. c #AAA8A3",
"c. c #B0AFAE",
"v. c #B1AFA0",
"b. c #B3B2A5",
"n. c #BCBAA3",
"m. c #B3B2AC",
"M. c #B9B7A5",
"N. c #B4B3B3",
"B. c #B9B8B6",
"V. c #BDBCBB",
"C. c #C5AD9A",
"Z. c #C1A896",
"A. c #C8B29E",
"S. c #C1BEA6",
"D. c #D0BDA7",
"F. c #C0BFBC",
"G. c #C4C2AA",
"H. c #C9C6AD",
"J. c #CAC8AF",
"K. c #D4C3AC",
"L. c #CECBB2",
"P. c #DCCDB5",
"I. c #D7C7B0",
"U. c #D3D1B7",
"Y. c #D5D3B9",
"T. c #DAD5BB",
"R. c #DBD9BE",
"E. c #DED0B7",
"W. c #E5D9BF",
"Q. c #C4C4C4",
"!. c #C8C8C7",
"~. c #CBCBCB",
"^. c #DFDCC1",
"/. c #D0D0CF",
"(. c #D4D4D5",
"). c #DCDBDB",
"_. c #E2DDC2",
"`. c #E8DEC3",
"'. c #E5E2C6",
"]. c #E7E4C8",
"[. c #EBE6CA",
"{. c #EDEACD",
"}. c #F1ECCF",
"|. c #F3EED1",
" X c #F5F2D4",
".X c #F8F5D6",
"XX c #FAF7D8",
"oX c #FCF9DA",
"OX c #FEFBDC",
"+X c #FFFCDC",
"@X c #FCFADA",
"#X c #DFDFE0",
"$X c #E6E6E6",
"%X c #E4E4E4",
"&X c #EBEBEB",
"*X c LightYellow",
"=X c #EFF0F0",
"-X c #F3F3F4",
";X c #F9F9FA",
":X c white",
">X c #FEFEFE",
",X c #FCFCFD",
"<X c #FEFEFE",
"1X c #F7F7F8",
/* pixels */
"                                                                                                                                ",
"                                                                                                                                ",
"                                                                                                                                ",
"                                                                                                                                ",
"                                                                                                                                ",
"                                                                                                                                ",
"                                                                                                                                ",
"                                                                                                                                ",
"                                                                                                                                ",
"                                                                                                                                ",
"                                                                                                                                ",
"                                                                                                                                ",
"                                                                                                                                ",
"                                                                                                                                ",
"                                                                                                                                ",
"                    :X:X:X                                                                            :X:X:X                    ",
"                  :X%X0.).:X                                                                        :X).0.(.:X                  ",
"                  :Xz.# a ).:X                :X:X1X-X&X$X).).).).).%X&X=X-X:X:X                  :X!.a $ 0.:X:X                ",
"                :X:X! 3 1 / :X:X      :X;X$X(.F.m.b.b.e.;.;.;.;.;.:.=.p.b.b.m.V.~.).-X:X        :X-Xh 5 e h -X:X                ",
"                :XV.4 p 3 J :X:X:X;X).V.x.v.G.R.[. XXXK.r.u.u.u.u.u.u.W.oX X{.^.L.M.d.m.!.&X:X:X:X&Xq y p 1 ,.-X:X              ",
"              :X!.q y p 4 ,.:X-X!.s.h.U.}.oX+X+XoXoXoXK.r.u.u.u.u.r.u.W.oXoXoXOX+XoX.X'.G.f.z.(.;X:X<.1 p p 2 / &X:X            ",
"          :X:XV.0 y p u 1 (.!.w.n.[.oXOXoXXX|.[._.E.K.C.r.u.u.u.u.r.u.A.K.P._.[.|.XXoXoXOX.X^.d.t.(.~.; p p p 2 L $X:X          ",
"          :X(.0 y p p 3 h q.h.{.OXoXoXoXoX}.I.C.u.r.r.r.u.u.u.u.u.u.r.r.r.r.g.A.P.|.oXoXoXoXoXoX_.i.q.w y p p p 1 ! ;X:X        ",
"        :X;XR 2 p p p e A T.oXoXoXoXoXoXoXoX.X[.P.A.g.r.r.r.u.u.u.r.r.r.Z.D.W.|.XXoXoXoXoXoXoXoXoXoXH.0 1 p p p p * (.:X        ",
"        :X;Xk 3 p p p p U.+XoXoXoXoXoXoXoXoXoXoXoX X`.K.Z.r.r.r.r.u.C.P.{.XXoXoXoXoXoXoXoXoXoXoXoXoX+XU.0 y p p u ; (.:X        ",
"          :X!.h 3 y e 6.oXoXoXoXoXoXoXoXoXoXoXoXoXoXoXoX}.P.C.g.C.E.|.oXoXoXoXoXoXoXoXoXoXoXoXoXoXoXoX+Xy.2 u e 0 l.;X:X        ",
"            :X$Xz.~ y _.oXoXoXoXoXoXoXoXoXoXoXoXoXoXoXoXoXoX|.`.|.oXoXoXoXoXoXoXoXoXoXoXoXoXoXoXoXoXoXoX[.0 R l.(.:X:X          ",
"              :X:X~.^ oXoXoXoXoXoXoXoXoXoXoXoXoXoXoXoXoXoXoXoXoXoXoXoXoXoXoXoXoXoXoXoXoXoXoXoXoXoXoXoXoXoXT 0.:X:X              ",
"          :X-X/.m.7.&.oXoXoXoXoX].{.OXoXoXoXU.U.oX+X X}.+X^.&.{.OXoXoX+X'.S.oXoXoXoXoXoXXX XoXOXoXoXoXoX X-.i.s.Q.%X-X:X        ",
"    :X;X).B.f.M.'. X&.'.+XU.J.+X9.#.U. XOX+XH.h a.L.8.$.h.5.N -.Y.j._.L.[ I |.+X.X[.oXoXy.h. XS..XoX.XoX[.y.OX{.L.M.d.B.-X:X    ",
"    :XB.#.T..X{.T.G.$.e.n.j.y.G.D I { 2.h.U.G.S } { } =.} { 3.=.[ U [ ] *.E e.H.e.I G.9.i T y.D {.'.9.U.L.&.U.'.{.oX X[ !.:X    ",
"    :X&Xl.8.j.a.a.n.U.G.A j.|.9.F I 3.=.{ [ E N j j j M H K K K H M s d d s S { =.[ E | i T R.n.a.j.H.p &.k.j.i.e.G.d.t.-X:X    ",
"      :X:X$X! -.G.W 8.G.j.D ' I =.3.3.3.3.3.} & O O O % % 7 9 8 8 7 % O o o @ [ 3.3.3.3.=.E T R. XoXi.A n.-.#.G.6.^ ).;X:X      ",
"        :X-X^ '. XW '.+X+XH.0 I 1.3.3.3.3.3.3.P * O o X X . X X . . X o + * K 1.3.3.3.3.3.3.U W {.y.T '.+XU.$.oX[.~ -X:X        ",
"        :X(.^ oX_.W .XoXoXOX_.&.F I { =.3.3.3.3.1.{ U K N g f f g N K E } 3.3.3.3.3.3.3.3.1.| 1 W e.{.oXoX X#.'.oX#.~.:X        ",
"        :XQ.&.+XR.#.XXoXoXoXoXoXR.h.-.W y i i i i e t b C ) l > ) C C C B i N S P P I I S S E i.'.oXoXoXoXOX>.H.+X6.N.:X        ",
"        :X!.&.+X].#. XoXoXoXoXoXoX+XoX XA = r z x r > o.O.@.` < O.+.X..., 2 u r 6 # $.J.U.]..X+XoXoXoXoXoX+X5.n.*X8.N.:X        ",
"        :X#XW .X.X#._.oXoXoXoXoXoXoXoX+Xy.: z r r z - ,  .O. ._ O.X.` , = r r r z : J.+XOXoXoXoXoXoXoXoXoXoXW J.+X&.!.:X        ",
"        :X;X/ U.+Xa.a.+XoXoXoXoXoXoXoXoX{.A 2 x c x x r t l ( ( l Z r z v v x x 6 p |.oXoXoXoXoXoXoXoXoXoX_.L {.{.E &X:X        ",
"          :XV.-.oX[.' '.oXoXoXoXoXoXoXoXoXR.n - r r r z z u r r r u u r r r z r 3 G.OXoXoXoXoXoXoXoXoXoX+X8.e.+Xj.0.:X:X        ",
"          :X;X,.n.+Xn.5.XXoXoXoXoXoXoXoXoXoX{.6.n z x v v v v v v v m V V v u D H.oXoXoXoXoXoXoXoXoXoXOXU.W {.].^ $X:X          ",
"            :X$X%.U.oX9.a.oXoXoXoXoXoXoXoXoXoXoX'.j.$.u e x x x x x n r u Q h.{.OXoXoXoXoXoXoXoXoXoX+X_.' U. X&.!.:X            ",
"              :X).%.U.|.$.n.OXoXoXoXoXoXoXoXoXoXoX+XoXa.! !.!.Q.Q.!.c.L H..X+XoXoXoXoXoXoXoXoXoXoXoXL.&.L.{.5.B.:X:X            ",
"                :X%X4.n.R.I i. X+XOXoX+XoXoX+X+X.X X+XXX&.0.-X:X,XQ.R T.+XoX XoX+X+XoXoXoXoX+X+X[.y.8.'.U.4.!.:X:X              ",
"                  :X-Xs.i e e Q j.a.-.G._.j.-.n.5.D 5.y.D 2 S z./ e e a.j.5.F n.L.>.k.{.Y.5.y.6.n e ' I w.%X:X                  ",
"                    :X:XQ.E B r # : x x m z 2 2 x c r : x G z @ $ V v = 5 v z r = r u G m r @ 5 c z t q.;X:X                    ",
"                        :X-X).V.z.%.N x x x r 2 x x x - x S Y z.0.K F 2 z v v r - v c x x g J ~ <.l.).:X:X                      ",
"                                :X:X$X~.V.B.!.~.V.N.B.~.%X$X-X:X:X&X$X(.z.7.7.l.c.x.l.m.!.&X-X-X:X:X                            ",
"                                                                        :X:X:X:X  :X:X                                          ",
"                                                                                                                                ",
"                                                                                                                                ",
"                                                                                                                                ",
"                                                                                                                                ",
"                                                                                                                                ",
"                                                                                                                                ",
"                                                                                                                                ",
"                                                                                                                                ",
"                                                                                                                                ",
"                                                                                                                                ",
"                                                                                                                                ",
"                                                                                                                                ",
"                                                                                                                                ",
"                                                                                                                                ",
"                                                                                                                                "
};
