/* XPM */
static char *s60aDaZFlOayJYc_png[] = {
/* columns rows colors chars-per-pixel */
"64 64 250 2 ",
"   c #181C29",
".  c #191C31",
"X  c #1B212D",
"o  c #1B2434",
"O  c #1D243A",
"+  c #1E2C3B",
"@  c #192635",
"#  c #21252D",
"$  c #222534",
"%  c #242834",
"&  c #23263B",
"*  c #232B3C",
"=  c #2A2B3D",
"-  c #292838",
";  c #25323E",
":  c #2C323D",
">  c #37383D",
",  c #382833",
"<  c #201F34",
"1  c #483932",
"2  c #3F4636",
"3  c #6E4E34",
"4  c #6F6238",
"5  c #574D39",
"6  c #1D2C42",
"7  c #1F3552",
"8  c #252C42",
"9  c #2B2E43",
"0  c #292C48",
"q  c #312E44",
"w  c #253344",
"e  c #2B3345",
"r  c #2C3945",
"t  c #25344A",
"y  c #2C344A",
"u  c #2C3B4B",
"i  c #27394C",
"p  c #333445",
"a  c #33354C",
"s  c #323B4C",
"d  c #3B3A4A",
"f  c #3A3646",
"g  c #2E3D51",
"h  c #2B3654",
"j  c #343652",
"k  c #343C53",
"l  c #3A3C55",
"z  c #343C5A",
"x  c #3A3D5B",
"c  c #373456",
"v  c #2F2E53",
"b  c #3C3D63",
"n  c #363A63",
"m  c #2B3E65",
"M  c #433D4C",
"N  c #473742",
"B  c #433B58",
"V  c #513B4B",
"C  c #463E64",
"Z  c #32414F",
"A  c #3B434D",
"S  c #344354",
"D  c #3A4355",
"F  c #344A57",
"G  c #3A4956",
"H  c #36445B",
"J  c #3B445B",
"K  c #3C4B5C",
"L  c #364B58",
"P  c #3B5159",
"I  c #2E4252",
"U  c #3B4462",
"Y  c #3D4A62",
"T  c #3A4769",
"R  c #354969",
"E  c #47484C",
"W  c #584C4E",
"Q  c #55544C",
"!  c #444554",
"~  c #444A55",
"^  c #4B4C54",
"/  c #42445B",
"(  c #434B5C",
")  c #4B4C5C",
"_  c #4B4557",
"`  c #564B59",
"'  c #43525E",
"]  c #4C535D",
"[  c #4A5758",
"{  c #53535C",
"}  c #5C545C",
"|  c #575758",
" . c #4E524D",
".. c #695C49",
"X. c #644B59",
"o. c #685857",
"O. c #755A58",
"+. c #755450",
"@. c #576159",
"#. c #6A6959",
"$. c #746858",
"%. c #756F50",
"&. c #434563",
"*. c #444C63",
"=. c #4A4C63",
"-. c #444C6B",
";. c #4B4C6B",
":. c #484566",
">. c #554C66",
",. c #445364",
"<. c #4A5465",
"1. c #4B5965",
"2. c #45546A",
"3. c #4B546A",
"4. c #4C5B6C",
"5. c #475869",
"6. c #535364",
"7. c #5A5363",
"8. c #535B65",
"9. c #5C5C64",
"0. c #52546B",
"q. c #525C6C",
"w. c #5B576C",
"e. c #454C74",
"r. c #4A5575",
"t. c #4D5C71",
"y. c #4B547C",
"u. c #445577",
"i. c #525373",
"p. c #5A5372",
"a. c #535D73",
"s. c #585A76",
"d. c #594F70",
"f. c #645B67",
"g. c #675A78",
"h. c #6C5767",
"j. c #53626D",
"k. c #59636A",
"l. c #546274",
"z. c #5A6375",
"x. c #5C657A",
"c. c #5C6B7C",
"v. c #586678",
"b. c #686668",
"n. c #776868",
"m. c #767669",
"M. c #636573",
"N. c #626B7D",
"B. c #65687A",
"V. c #64727C",
"C. c #6A757A",
"Z. c #797779",
"A. c #706C77",
"S. c #855439",
"D. c #835E49",
"F. c #956647",
"G. c #866558",
"H. c #966B56",
"J. c #897C59",
"K. c #916B51",
"L. c #A77A5B",
"P. c #886966",
"I. c #877B67",
"U. c #987566",
"Y. c #887575",
"T. c #A57A65",
"R. c #B07D63",
"E. c #7B8371",
"W. c #8C8557",
"Q. c #958B69",
"!. c #89877A",
"~. c #928A77",
"^. c #9A9578",
"/. c #8F8B6A",
"(. c #AA8569",
"). c #B68569",
"_. c #A49876",
"`. c #A78D70",
"'. c #A9A17A",
"]. c #B5AC7A",
"[. c #B0825F",
"{. c #4C5382",
"}. c #535D83",
"|. c #5E6A86",
" X c #646D83",
".X c #676A84",
"XX c #657384",
"oX c #6D7A8C",
"OX c #6B7687",
"+X c #737C8B",
"@X c #747786",
"#X c #6D7893",
"$X c #757D96",
"%X c #726D8C",
"&X c #827E9D",
"*X c #78858A",
"=X c #798696",
"-X c #74858C",
";X c #868789",
":X c #88928B",
">X c #9A9786",
",X c #858A98",
"<X c #88959A",
"1X c #999999",
"2X c #948A88",
"3X c #A59A89",
"4X c #A49397",
"5X c #9EA39C",
"6X c #ABA587",
"7X c #B3AA88",
"8X c #BCB48A",
"9X c #A6A69A",
"0X c #B4A995",
"qX c #B9B596",
"wX c #868CA4",
"eX c #8B96A7",
"rX c #9598A8",
"tX c #949CB6",
"yX c #8E98B5",
"uX c #98A6A9",
"iX c #98A6B7",
"pX c #94A6A8",
"aX c #ADB4A9",
"sX c #B8B7A4",
"dX c #A5AAB9",
"fX c #B5BABA",
"gX c #A6B2B1",
"hX c #C6B999",
"jX c #CCBA91",
"kX c #C8BEA4",
"lX c #C6BBB4",
"zX c #D2BCA6",
"xX c #BDC3B9",
"cX c #CAC597",
"vX c #D4C899",
"bX c #D3CC93",
"nX c #CAC5A8",
"mX c #D4CBA6",
"MX c #C9C4B8",
"NX c #D5CCB6",
"BX c #D8D2AA",
"VX c #E0D8B6",
"CX c #A6ADC7",
"ZX c #AAB4C9",
"AX c #B6BBD6",
"SX c #B3B7CD",
"DX c #BFC3C4",
"FX c #B5C2D6",
"GX c #BFCBE5",
"HX c #CED0CF",
/* pixels */
"o o o o o o O + 8 w e y s e r S D F S S F G G K ' ' K K K 4.K K A S D G K Y Y Y Y K P P P K L F F F F F F S I g g g i t 6 6 6 6 ",
"o o o o o O + * * * w e e r u S s s S F G K K K K ,.,.4.4.K 4.4.k.j.' K ,.Y Y K K F L F F F L G K L S I S Z u r i i t 6 8 6 6 6 ",
"o o o o O + 8 w y u s S S F D S s S K ,.5.5.5.5.,.j.XX-X-X=XeX<XpX<X*XOXOXl.,.4.,.,.,.,.,.,.K K K K G G K K F S S g g g t 8 6 6 ",
"o o o o * * w w e e u s s S u O + e F ( ,.,.,.,.G 4.OX=Xv.iXiX<XgXuX<X<X,Xc.1.j.<.5.,.,.5.K S w w r S F D F S k g g y i t 6 6 6 ",
"o @ O * * * w e e u s D K w o o + * w u 4.K K ,.,.K XXOXG wXv.V.*X@.:XC.@X+X( ,.<.4.1.q.( w X O @ o e ( D G D s k k g g t 8 6 6 ",
"o @ O * * w e e y S D G r * + * * * w u D <.q.5.l.q.+X=X=XrXeX-XpX:X<X,XiX=Xq.a.l.q.<.<.s * * e 9 & * s *.<.( k S S S g i t 6 6 ",
"o + + * w w r u s D D s + + * w + * w u ( *.K e u ,. XeXeXyXiXpXiXgX<X,X,XXX3.k D J ( =.9 = 9 a e * * * l =.=.J D S S S i t 6 6 ",
"o + + * w e u u D J s o o O * + O * w y e & * a y l s 3.k <.l.OXV.V.<.S H J h z u y e e e p 9 = - - & $ . a ( ( K D S S i t w 6 ",
"o + + * e r u s D y o * w ; ; r u e 0 y l l p f B B d d k u r Z D k g H z z z z k u y e d q f f p : = % * & s J J F S u r w w + ",
"o + + * r u s k ( a & e q.1.' 4.,.D y v l B , , N N > > D J S D H U U k z z x x z k a a q - _ f.| { | { * o i 5.K S s S r t w + ",
"@ + + w u u S S e * 8 ,.l.XX=X-X|.r.x v c M b.$.$.$.%.#.E J ,.<.H U U z x H J H z z j j p d 9.f.!.>Xm.@.) * o y K ,.K S u r w w ",
"@ + + w u S S D 9 o @ *.N.iXiXiX$X}.n c l M lXnX8X8X8XqX[ 1.wXFX=Xs.J x U J J H z z j j j d f.Y.qXqX6X#.) * O O ,.K K K Z r e w ",
"+ w w w u Z S S & & @ *.=XiXiXiXtX|.c x a E ~.%.W.W.].qXE B.iXCXGXtX:.:.:.&.Y U J x n c q M b.3XqXqXqX~. .< 8 O F *.J *.F u r w ",
"+ w w w u S F s o & & <.+X=XiX-XtX#Xn x / M n.%._.cX].^. .N.iXCXZXSX.X&.:.:.*.U U b n n l E m.6X6X^.I.3X| < 8 O u 5.*.K H g t w ",
"+ w w w u G F e o & * q.=X=XZXV.eX#Xz x =.M } n.hX'.%.%.b.dXSXoX#XiXi.;.;.;.-.-.T U b b l f >X%./.6X$.~.f.< & O u ,.K ,.H g w w ",
"+ w w w u K G w o & 9 a.=XeXCXc.XXoX&.x / _ ` o.....^.sXb.@XeX X/ <.B =.>.=.=.*.*.T T b l > ~.6X7X_.4 I.b.& & & 8 5.5.*.J S r w ",
"w w r u S ,.,.8 & 9 9 3.oXc.iXc.=XOX=.l ) ) b.2X4X3X/.$.E =.0.=.^ { 9.f.9.} | ^ ( Y T U l M !.6X_.].Q._.| - = * w 4.4.,.K S S w ",
"w w r u S K ,.w & 9 9 3.=XXXtXtXyXN./ / ! ^ } Z.n.O...$.} 7.>._ | !.9X9X1XaX!.E ~ *.-.&.B M n./.Q.jXjX6X| = 8 * w 4.4.,.K S S w ",
"w w r u G K ' e & 9 9 3.=XiXiXiXwXa.( ) ~ ]  .| ;X2X0XMX2Xf._ } 3XqXnX0XsXNXnX>X| ~ *.&.:.f f.0XkXjXhXm.| - 8 + w 4.4.,.K S S w ",
"w w r u K K K y & 9 9 3.q.wXiXeXa.i.=.) ] 9.{ E } !.qXnX>X1XZ.W qX8XqXqXqX'.6XnX2X} ) =.c >.7.Z.0XqX>X#.{ = * + w 4.4.,.K S S w ",
"w w u F K ,.K G * = p ( q.l.v.x.x.0.3.=.6.,X*Xb.Z.#.~.6X0XMXlX0XJ.jX7XcXcXQ._.W.^.aX^ >.;.:.0.M.b.b.b.b.E : & O k l.v.t.K S g t ",
"w w u F ' 4.,.<.p = = e J K *.=.=.=.( ( C.SXfX1X;XZ.6X%.~.~.qXNXQ.'.8XmX'.Q._.Q.J./.n.w.i.e.T ;.) ~ ! ! : : & o 5.x.c.l.K S g t ",
"w w u F G K K <.a & 9 a s k k J / ( ( ( eX1XC.b.{ b.%.%.5 ..Q._._._.Q.mX_.qX7X8X_.6XlXw.i.e.T R k s a e e : @ * t.t.t.4.K H k u ",
"w w r F K ' K l.<.s e e s k k J ( ( ( ( uXuXb. .9.9.E.^...5 $...^.hX3X..3XnX_.'.J.Q.3X} 3.e.R R z k j y = = s 3.x.a.a.l.K H k u ",
"w r S F K K ,.,.l.*.t t k k D J *./ iX@Xk.*X;X[ 6.9.!...` f.n.I.6XI.n.W X.lX0X%.4 _.BX9X> ' P I k j j u e 9 k x.a.a.a.a.,.H S u ",
"w r S F ,.,.5.4.a.Y t h k z J J l / dXeX@XM.8.9.M.A.1X .>.d.} #.hX/.o.` h.n.7X].jX_.Q.~.E.[ L L S j a a e 0 k x.a.a.a.a.,.H S u ",
"w r S F ,.,.5.4.t.Y t g k z H J *./ @XrXdX,X=.s.p.w.A.f.g.g.g.b.^.^.lX4XY.1 I.8XvXBX0XMXaXA G L D l a a e 0 k x.a.a.a.a.,.J S u ",
"w r S F K K ,.,.3.Y t g k z H U ;.;.` @XA.,Xp.i.&X&X:.p.:.p.g.` $.7XNXMX$.I.Q.4 qX0XQ Z.aXE [ Z D j a e e 8 k x.a.a.a.a.,.J S u ",
"w r S H ,.,.,.c.a.3.u t k z J J -.=.` Y.h.h.p.s.%XCX>.g.>.d.g.A.^.BXNXnX~.qXhX6X^.m.| 9.:X!.k.k D j a e e 8 J N.x.a.t.v.2.H S u ",
"w r S H K ,.c.oXx.3.y y k D J J *._ o.U.U.Y.7.s.p.rXf.` >.p.f.A.^.nXQ.'.VXmXnXBX>X} _ M.9X| E / l j a 0 e 8 *..X=XXXl.4.2.H S u ",
"i u S J ,.t.XXXXXX3.y g k k J J /  .+.(.H.G.;XA 7.Z.b.E >.p.` Z.0XW.7XBXcXcXvXBX>X^ ;.p.MXm.! / J l a 0 0 8 <.+XoXOX Xv.2.K S u ",
"t u S J K v.c.c.#Xt.y j k k J J G  .D.).F.3 o.f.f.` o.W 7.w.E Y.>XW.cXcXBXcXcXnX!.^ s.:.Z.:X_ / J l a 0 0 8 3.=X XXX Xa.2.K S u ",
"t u S J ,.l.XXXXXXt.y j j l H J G ` D.).F.S.+.+.P.P.O.X.7.7.6.{ #.^.Q.cXbXbXcXhX>X .;.i.B.k./ / J l a e e 8 3.$XoXoX|.t.5.K S u ",
"t u S J ,.4.c.XX|.3.e j c l D J ( ` +.U.H.H.U.P.+.+.X.X.7.0.3.1. .~.cXcXbXbXcXhXsXaX.X&.0.=.( l J j a e e * 2.oXOXXXv.t.5.K S u ",
"r u S K K *.v.XXv.2.0 j j l l D =.=.` O.O.U.T.G.X.` >.p.i.r.r.4.[ E.mXBXvXvXjXhXnXxX@X0.N.) &.j J j a e t & *. XoXc.4.,.5.K S g ",
"r u S K 4.,.4.t.l.*.0 j j l k D <.2.=.6.W P.H.+.7.p.i.i.r.r.u.t.~ 2 %.hXmXvXzXkXm. .^ 6.eXw./ l J j a e e O / x.l.t.4.l.5.K S g ",
"u u S K Y ,.3.a.l.K 8 a a j k D *.;.-.2.0.} +.n.d.{.y.y.u.u.y.t.[ Q ^.7X7X8XhXNXb.[  .b.AX%X&.x j u e 0 8 & l x.a.t.4.5.5.K S g ",
"u u S K 2.5.t.v.l.K 9 a a j k D / =.e.u.r.0.} 7.y.{.{.y.T r.r.H 8.5XqXnX6X8XzXHX&X^ Q E.HXyXx ;.j u e 0 8 & l x.v.l.a.t.5.K S g ",
"r u S K K Y ,.4.l.K 8 a a j k D l ) 3.e.u.u.r.r.{.{.y.r.;.3.0.3.8.;X@.#./.6X0X3X9.b.:Xm.uX0.x v j u e e 8 & l x.a.t.4.,.,.K S g ",
"r u S K ,.,.4.l.l./ 9 j j j k l l / *.2.u.u.u.u.{.{.y.r.i.=.s.,XN.] > m.HX>Xo.N ! *X9Xm.+Xj &.x j u e e 8 & l x.l.l.t.4.,.K S g ",
"u u S F *.4.4.v.2.a p - v j j l z z T -.2.u.u.e.r.r.-.-.-.s.s.=.0.0.0.>.rX7._ _ M ,X<X{ rXx :.v e e e e & @ * D v.4.4.t.,.K F g ",
"u u S F Y 4.4.l.y 8 q q j z j l H R T T -.2.-.-.2.=.$X=.s.s.OXoXeX3.i.&.;.l @XdXM.eX@X@X%Xc C c e p = e & & $ & j.,.j.5.,.K F g ",
"u u S F ,.v.j.q.0 & - q *.-.=.*.*.=.*.*.-.-.-.,.N.,X=X*XiX@Xq.HX<X<.6.! _ rXdX8.w.C.) M.=.l :.=.! ! ] ) : % $ o 1.l.v.q.,.K S u ",
"u u S F G 1.,.G & 9 9 _ f.f.f.f.7.6.=.:.-.-.2.,.z.V.] k.<X<X+XuX] ] { { @X{ ] ! ) ) ! d l =.s.B.@X;X8.M.! = $ X S l.4.4.,.K S u ",
"u u S F ,.5.4.Z @ = - ` +.P.(.(.O.` _ B :.-.2.,.D 1.C.<XeX*X*X! ~ 8.M.rX,Xz.) 6.6.<.=.( / D w.B.DXHXgXk.) $ $ o r 1.4.4.,.K F Z ",
"u u S F ' 4.4.u o = - W G.T.).).(.O.V C C &.*.,.' ' ~ rXx.D z.] D ( =.8.<./ / =.=.&./ D ! A M.fXHXfXHX;X^ $ $ o * 5.4.,.,.K F Z ",
"r u S S K 4.j.r o - % W U.H.).L.(.G.V B C U K K &.J J J *.2.J =.2.*.&.l x *.;.:.&.b x D p ! C.;XxXxXxXfX^ $ $ o O 4.1.,.,.K F Z ",
"r u S S K 4.l.e X - % W U.3 R.F.F.H.V c b T K K k r.J &.x .XyXyX.X*.i.;.x ;.;.b b x x l a p <X*XaXxX9XDX .# $ o * l.v.,.,.K F Z ",
"u u k D K *.4.; # # % W H.S.(.D.H.G.E t m R H K &.*.&.&.z x.ZXAXtXx s.&.&.&.&.&./ J l j p f ,X:X9X5X#.Z.k.      o ,.,.K ,.K S Z ",
"u u k D 5.,.4.D # # % W T.F.L.K.T.G.E t 7 m H J &.&.&.&.tXeXCXAXeXe wXi.J J / / J l l a 9 A rXfX9XaX;XaX}       e 4.4.,.K F S Z ",
"u u k D J ,.5.S $ # % Q U.[.F.R.T.$.M h h h k J J J U U AXAXSXSXCXwXwX*.D D x x l l a e e d @XfX5XxXfXfX .X % X u ,.' ' K S Z Z ",
"u u k D ,.<.5.<.$ $ % Q J.(.).).`.O.d k h h u j k z x x =X$X$XCXAXAX3.x k l l l l j e 0 e d B.DXuXxXHX1X^ # - X ( j.,.4.G S u Z ",
"i u D K *.,.4.a.e   X  ...U.).T.P.} p e s h a a j j z z j t  XCXwX;.e / D l k z a e e 0 e ! 9.<XHXHXHXM.{ .   $ q.4.5.K K S u r ",
"w i k J K ,.5.4.S & X E o.$.P.P.b.7.p 9 a a a a a j z z z J x Y a y a z k j j u e 0 0 0 * p 9.M.;XrXZ.f.6.& & a q.4.' K G S u r ",
"w w u D G *.,.4.c.F X : { } ` 9.) ) 9 9 p p a a a k k z k h k Y k k J x k a t e e 0 0 0 p $ ~ M.{ ] 8.8.p . j s.a.,.K K G S u r ",
"* w u S D K ,.<.l.K o $ * * & * = a 9 a p p a s s s k k k k k S k i e e e e t t 0 0 9 0 = * $ : : % $ * = . l 0.<.,.K K K u r w ",
"w w r u ( ( <.q.q.l.,.o & @ @ O & 8 9 9 a p a & 8 & D G G ' V.C.V.V.' ,.( D u e & 0 * a * e = o % = %   o D z.q.q.,.' ' S u e w ",
"; ; r u Z ( ' ' <.l.q.<.* o * 8 0 8 & * D .Xq.s 1.B.V.=X<X<XgXfXuXgXeX-X,XoXc.5.k 3.B.*.* = * % $ * o X 8.<.( <.' 1.,.G S u w w ",
"; ; r u ( G ( q.<.4.q.a.( * o O e O & a q.N.N.OXOX+X+XeXv.gX-XV.uXpXpXOX<X+X XN.oXz.x.s.s * & & $ X o Z <.q.1.<.q.' G ' S u w w ",
"; ; r u s D ( ( <.<.5.4. XD . o O   8 =.OXs.N.N.XXz.OX-X1.uX=X*XpXC.=Xj.=XoXv.x.N.z.3.B.z.e o . o   r q.1.1.1.<.<.<.' G S u w w ",
"* * ; r A G ( ' <.3.a.z.z.z.3.y a J 0.x.OXOXXXXXV.+X=X<X<X<XuXgXgXgXpX-X=XoXXXN.v.x.v.v.z.z.u r r G 8.k.q.8.5.<.' ,.K G r w + w ",
"+ + ; w s Z D ( ,.<.5.3.<.3.q.z.x.x.N.N.x.z.z.z.j.v.V.OX-X*X=X<X<X<X-XV.XXXXv.v.c.c.c.c.4.4.<.<.5.<.1.8.1.<.' ' K K G Z u w + w ",
"@ + ; ; r r s Z s S D D J ( *.*.=.=.*.*.=.<.<.,.' <.1.1.[ [ [ 1.k.k.1.1.4.5.5.,.,.,.,.,.,.,.K K K ( G G ' ' G G S S Z r u w + + ",
"@ @ * ; ; ; r u S S D D J J ( ( / / *.=.<.<.<.,.' ' ' [ [ [ [ [ P P ' 1.P K ,.,.,.,.,.,.K 4.F ,.' ' ' ] ,.' G G S D Z u u w + + "
};
