/* XPM */
static char *_ab747059fa54ff7a8a3f0e4ab330251xtZFZLm12OLzklq9[] = {
/* columns rows colors chars-per-pixel */
"64 64 154 2 ",
"   c #669E33",
".  c #689F33",
"X  c #67A32F",
"o  c #68A32F",
"O  c #67A133",
"+  c #68A233",
"@  c #72AE37",
"#  c #73AE39",
"$  c #74B236",
"%  c #74B139",
"&  c #79B73E",
"*  c #7ABA3B",
"=  c #7AB93B",
"-  c #7BBC3B",
";  c #7BBD3B",
":  c #7CBD3B",
">  c #7CBE3B",
",  c #79B83C",
"<  c #79B93C",
"1  c #79B83D",
"2  c #79B93D",
"3  c #7AB83C",
"4  c #7AB93C",
"5  c #7BB93C",
"6  c #7AB83D",
"7  c #7AB93D",
"8  c #7BB93D",
"9  c #79BA3D",
"0  c #7ABA3C",
"q  c #7BBA3C",
"w  c #7BBB3C",
"e  c #7ABA3D",
"r  c #7BBA3D",
"t  c #7BBB3D",
"y  c #7AB83E",
"u  c #7AB93E",
"i  c #7AB93F",
"p  c #7BB93F",
"a  c #7ABA3E",
"s  c #7BBA3E",
"d  c #7BBB3E",
"f  c #7BBB3F",
"g  c #7CB93D",
"h  c #7CBB3D",
"j  c #7CBB3E",
"k  c #7BBC3C",
"l  c #7BBD3C",
"z  c #7BBC3D",
"x  c #7BBD3D",
"c  c #7BBE3C",
"v  c #7BBC3E",
"b  c #7BBC3F",
"n  c #7CBC3C",
"m  c #7CBD3C",
"M  c #7DBD3C",
"N  c #7CBC3D",
"B  c #7DBC3D",
"V  c #7CBD3D",
"C  c #7CBE3C",
"Z  c #7CBF3C",
"A  c #7CBE3D",
"S  c #7DBE3D",
"D  c #7DBF3D",
"F  c #7CBC3E",
"G  c #7CBD3E",
"H  c #7BBB3D",
"J  c #7DC03D",
"K  c #79B640",
"L  c #7AB740",
"P  c #79B740",
"I  c #7AB840",
"U  c #7BB840",
"Y  c #7BB940",
"T  c #81C53F",
"R  c #83C43E",
"E  c #82C43F",
"W  c #83C43F",
"Q  c #82C63F",
"!  c #82C73F",
"~  c #83C73F",
"^  c #82C63F",
"/  c #81C83E",
"(  c #83C83E",
")  c #85C83F",
"_  c #84C93F",
"`  c #84CA3E",
"'  c #84CA3F",
"]  c #83CC3F",
"[  c #84C93F",
"{  c #83C540",
"}  c #82C541",
"|  c #83C740",
" . c #83C741",
".. c #82C442",
"X. c #82C543",
"o. c #83C543",
"O. c #82C742",
"+. c #83C742",
"@. c #82C743",
"#. c #83C743",
"$. c #84C541",
"%. c #84C740",
"&. c #84C741",
"*. c #84C642",
"=. c #81C344",
"-. c #82C344",
";. c #81C444",
":. c #82C544",
">. c #83C544",
",. c #82C445",
"<. c #84C744",
"1. c #83C642",
"2. c #83C840",
"3. c #83C940",
"4. c #82C841",
"5. c #83C841",
"6. c #82C941",
"7. c #82CA40",
"8. c #82CB40",
"9. c #83CA41",
"0. c #82CB41",
"q. c #83C842",
"w. c #82C942",
"e. c #83C843",
"r. c #83CA42",
"t. c #83CB42",
"y. c #84C840",
"u. c #84C940",
"i. c #84C941",
"p. c #84CA40",
"a. c #85CA40",
"s. c #84CB40",
"d. c #84CA41",
"f. c #84C842",
"g. c #85C842",
"h. c #84C942",
"j. c #84C843",
"k. c #84C943",
"l. c #84CA42",
"z. c #84C941",
"x. c #8ACF47",
"c. c #8BCF43",
"v. c #8BD243",
"b. c #8BD144",
"n. c #8BD245",
"m. c #8BD046",
"M. c #8DD045",
"N. c #8CD345",
"B. c #8CD445",
"V. c #8CD345",
"C. c #8CD248",
"Z. c #8CD349",
"A. c #8DD349",
"S. c #8CD348",
/* pixels */
"            # #       O # #             # % t b b t O     O # #   O I b t b p.) p.p.b b b b b t % % % # O                       ",
"        O + % % O O   O % % O O O O O O # % t t t & + + O O # # O O I b b m 2.2.2.2.* * t t t t % $ # #     O + O O O O O O     ",
"      O -.) 2.2.2.R O   # % t t t t g & O . O O   + x.m.% # O O & t t b p.2.; b m t +   O O O O # % O O   O -.&.o.R t t t 3     ",
"O O   O R 2.p.p.2.o.+ O % % m m m m g t O . O O   + m.Z.$ # O O t m m m o.2.m m t & O   O O O O % $ .   O + &.p.p.2.m > b t +   ",
"I K O   O + 2.2.o o ,.>.( ( 2.2.p.o.% #   O K t t * > t O O # % R p.p.o.% $ &.o.+ O # % t t t t g t O O K t m m 2.] B.Z.m * t t ",
"b * + O   O o.o.O O R 2.2.2.p.p.p.o.$ % + O & t t t t * O O % $ 2.2.p.o.% % p.&.+   # % * t t t t t O O t t t b 2.) B.V.m m t t ",
"t b o.,.% # % % O   O + ( 2.p.p.> b t t t t O O t b b t t t t t b b m m o.2.p.R O         O O O   O # # O O t b b b m m p.,.+ O ",
"t m ) ) % % % # O O   + R p.2.2.; t m b t & O X t t m b m m t t t t t m 2.p.p.R + O O O O O O O + + # # O O & t t t * * o.,.O   ",
"t m p.2.% # O O & t t t m m m m t m Z.v.+ O & t % % &.p.p.2.b t t t t t b b b m t t t t t t t ; V.m.% # % # O O % % O O % % O   ",
"m m R R $ % + O t m m m t t t t t b B.V.+ O t m % % o.p.p.2.m b m m m m m b m m m m b b b b b m V.C.$ % % # O O # @ O O # # O   ",
"A.m.+ + >.2.t * &.p.2.2.b t t t t b m m ,.>.j.o.t t b b b m p.p.p.p.p.p.p.p.2.2.2.2.b t t t t t m b t t O O # # O X # # % #     ",
"V.c.O O ,.2.b b 2.p.p.p.m b m m t t g m ,.&.p.2.m b m m b b o.o.R R p.p.p.p.p.) p.p.m b t t t t t t t t o O % % O O # # # # O O ",
"O O # % t b t t b m p.p.p.p.p.o.O O >.>.o O R p.p.p.2.2.p.o.o O O + t b t m V.B.p.p.p.p.m t t t t t t t t t o.2.( R O     O # % ",
"    # % t m m m t b o.p.p.p.( R O o -.-.o O R p.) ) p.p.o.-.+ O O + t b g m B.B.p.p.o.o.b t t t b b m m b b p.p.p.R + O   O # # ",
"  O @ % o.p.2.2.b t b b b t + O & & O O K t m m p.] B.m.+ o o.&.o.R p.p.p.p.p.p.s.o.o O % % t b 2.p.p.p.b t b b m b t t % # O   ",
"O O # % o.2.p.p.m b b b m t O O t t O O t b t b 2.p.B.v.O O 2.p.p.p.R o.p.p.p.p.o.-.+ O % % t b 2.) p.p.b t t t t t t t % # O O ",
"# # % % % $ 2.p.p.p.p.p.p.p.* t p.p.o.R m t t t b b b m t t p.p.m * O + R p.p.o.o o o.&.2.o.b t b b m m b b b b b t o o # % t t ",
"# % # # # % 2.p.2.2.o.R p.p.> ; o.o.p.o.m t t t t t t t b m p.( t & O O o.p.2.o.o O 2.p.p.p.m b t t t t t t t t t t O O % % m m ",
"      O # % p.p.$ $ O + o.p.p.o.+ + t m b b t t b b t t t t m t O O & t % % b m o.( p.p.p.p.p.2.m b b t o O O O % %   O & b C.A.",
"O O O O % $ o.o.% # O + o.2.( -.o O & t t t t t t t m m m m b t + O t g % % t m 2.) 2.2.2.2.p.p.t t t t o       % $ O + t J m.A.",
"I t t ; V.v.+ + t m V.V.J g + O # # O O O + % % O O ,.p.p.p.p.p.2.o.m t t t t t b b m m m m m t o O % % # #   O t ; t t V.C.m m ",
"t t t m v.x.O O & > V.Z.g &     # # O     O # @   O ,.j.R R 2.2.( o.> m t t t t t t t t t t t & O   # $ % # O O t b b J B.B.m * ",
"O O t t + +     O O O + O O     # % # #     O       % % O O % % O + V.V.+ O % % + O O + % % O         O # % & I t m C.B.B.B.m t ",
"  O & t O   .                   % % % % + O O O O O % % O O # # O + v.v.+ O # @ O       % $ O   O O O + $ % t b t m V.B.B.B.m t ",
"    O O                       O t t t m V.m.t t t t V.m.b & O . # # O + K K O O # #   + m.V.t t t t t t t t t t t t m m B.B.m b ",
"    O O + O O O O O O O O O   O t b t g V.B.m b m m B.B.m & O O % % O + t g O O % %   + v.V.m b m m m m t t t t t t t m v.V.t t ",
"  O # % o.R R o.* t t t t &     t t o O t m t b o.( B.V.+ O -.o.2.2.o.o.p.p.o.R p.R O   % $ t b 2.p.2.2.b t t t t t b t $ % O O ",
"  O # $ o.p.p.p.m > m m m * + + t t O O t b t b 2.p.B.m.O O ~ p.2.p.( o.p.p.p.p.2.o.+ O % % t b 2.) 2.p.b t t t t t t t % # O O ",
"# # % % % $ 2.p.p.p.p.p.2.2.* t ) 2.o.o.m b t t b b b m t t p.p.> t O + R p.p.o.o o -.>.( o.b t b b m m b b b t t t o O # % & I ",
"# % # # # % 2.p.2.2.o.R p.p.> ; o.&.p.2.> b t t t t t t b m p.p.; * O O o.p.2.o.o + &.s.2.2.m b t t t t t t t t t t O O % % b > ",
"      O # % p.p.$ $ O + o.p.p.o.o O t m b b t t b b t t t t m t + O & t % % b m o.( p.p.p.p.p.2.m b b t o O O O % %   O & b m.B.",
"O O O O % $ o.o.% # O + o.2.( -.O O & t t t t t t t m m m m b t + O t t % % t m 2.) 2.2.2.2.p.p.t t t t o       % $ O + t J m.B.",
"I t t ; V.v.+ + t m V.V.J g + O # # O O O + % % O O ,.p.p.p.p.p.2.o.m t t t t t b b m m m m m t o O % % # #   O t ; t t V.V.m m ",
"t t t m v.x.O O & > V.Z.g &     # % O     O # @   O ,.j.R R 2.2.( o.> m t t t t t t t t t t t & O   # $ % # O O t b b J B.B.m * ",
"O O t t + +     O O O + O O     # % # #             % % O O % % O + V.V.+ O % % + O O + % % O         O # % & I t m C.B.B.B.m t ",
"  O & & O   .                   % % % % + O O O O O % % O O # # O + v.v.+ O # @ O       % $ O   O O O O $ % t t t m V.B.B.B.m t ",
"    O O                       O t b t m V.m.t t t b V.B.b & O O # # O + K K O O # #   + m.m.t t t t t t t t t t b b m J B.B.m b ",
"                              O 3 t t m V.m.m t t b m.m.m & O O # # O O t t O X % % O + m.V.m t t t t t t t t t t t t t v.m.t t ",
"            # #       O # #     O O O O % $ t g b t + O O O # # O O K t t m &.o.2.2.t t m m b t % % % % + O O O O O O O + + O O ",
"        O + % % + O   O % % O O O O O + # # & t t & + O   O # # O O t m b m p.2.2.2.t t t t t t % % % @     O O O O O O         ",
"      O ,.) 2.2.p.R O   # % t t t t t & O O O O   + v.m.% # O O K t t b p.p.b b m t O O O O O O # @ O     O -.~ o.o.* t t & O   ",
"O O   O R 2.p.2.2.o.+ O % $ b m m m b t O   O O   + V.V.% # O O t m m m o.o.b b t & o   O O O O $ % O   O + o.2.p.p.m > b t O O ",
"I K O   O + o.2.o o -.e.( 2.2.2.p.o.% #   O K I * t m ; O O # % ( p.p.o.% % &.o.+ O # % t t t t b t . O K I b > p.p.B.V.m t t t ",
"b * + O   O o.o.O O R p.( ) p.p.p.o.$ % + + & t t t t t + O % % o.p.p.o.% % p.o.O   # % t * t t t t O O & g t b o.) B.V.m m t t ",
"t b o.,.% # % % O   O + R ) p.p.> b t t t & O O t t t t t t t t m b m m &.p.p.R O         O O O   O # # O O t b b b m m p.o.+   ",
"t m p.p.% % # # O O   + R 2.2.2.; ; m m t K O X t t b b m m t t t t t m &.2.2.R + O O O O O   O + + % # O O & t t t t * o.o.O   ",
"t m p.2.% # O O & t t t m m m m t m Z.C.+ O & t % % o.p.p.2.b t t t t t b b b b t t t t t t t * V.V.% # # # O O % % + O % % O   ",
"m m o.o.$ % + O t m m m t t t t t b Z.v.+ O g m % % o.p.p.2.m b m m m m m m m m m m b b b b b m V.C.$ % % # O O # # O O # # O   ",
"A.C.+ o &.2.t * &.p.2.2.b t t t t b m m o.,.p.o.b t b b b m p.p.p.p.p.p.p.p.2.2.2.2.b t t t t t m b t t O O # # O O # # % #     ",
"V.c.O + o.2.b b 2.) p.p.m b m m t t m m R ( p.2.m b m m b b o.o.R R p.p.p.p.p.) p.p.m b t t t t t t t t O X % % O O # # # @ O O ",
"O O # % t b t t b m p.p.p.p.p.o.O O >.&.O + R p.p.p.2.2.p.o.o O O + t b t m V.B.p.p.p.p.m t t t t t t t t t o.2.( R O     O # # ",
"    # % t b m m t b o.p.p.p.( R O O -.~ O O o.p.p.p.p.p.2.-.+ O O + t b g m B.B.p.p.o.o.b t t t b b m m b b ) 2.2.R +     O # # ",
"    @ % o.p.2.2.b t b b b t + O & & O O & t m m p.p.B.v.+ + o.&.o.R p.p.p.p.p.p.s.o.o O % % t b 2.p.p.p.b t b b b m t t % # O   ",
"  O # % o.2.p.p.m b b b m t O O t t O O t b t b o.p.B.m.+ O o.p.p.p.R R p.p.p.p.o.-.+ O % % t b 2.p.p.p.b t t t t t t t % # O O ",
"# # % % % $ 2.p.p.p.p.p.p.p.* t p.p.R o.m t t t b b m m t t p.p.> ; O + R p.p.o.o o o.&.2.o.b t b b m m b b b b b t o o # % & t ",
"# % # # # % 2.p.2.2.o.R p.p.> ; o.o.p.o.m t t t t t t t b m p.2.* & O O o.p.2.o.o O 2.p.p.p.m b t t t t t t t t t t O O % % b m ",
"      O # % p.p.$ $ O + o.p.p.o.+ + t m b b t t b b t t t t m t O O & t % % b m o.( p.p.p.p.p.2.m b b t o O O O % %   O & b C.A.",
"O O O O % $ o.o.% # O + o.2.( -.o O & t t t t t t t m m m m b t O + t g % $ t m 2.) 2.2.2.2.p.p.t t t t o       % $ O + t J V.A.",
"I t t ; V.v.+ + t m V.V.J g + O # # O O O + % % O O ,.p.p.p.p.p.( o.m t t t t t b b m m m m m t o O % % # #   O t ; t t V.Z.m b ",
"t t t m v.x.O O & > V.Z.g &     # # O     O # @   O ,.j.R R 2.2.( o.> m t t t t t t t t t t t & O   # $ % # O O t b b J B.B.m * ",
"O O t t + +     O O O + O O     # % # #     O       % % O O % % O + V.V.+ O % % O O O + % $ O         O # % & I t m C.B.B.B.m t ",
"  O K t O   .                   % % % % + O O O O O % % O O # #   + v.v.O O # @ O       % $ O   O O O O $ % t b t m V.B.B.B.m t ",
"    O O                       O t t t b V.m.t t t b V.m.t & o O # # O + & t O O # #   O m.m.t t t t t t t t t t t t m m B.B.m t ",
"                              O t b t m B.B.m b t b B.B.m t O   # %     t Y .   # #   + V.B.m t b b b b t t t t t t t m B.B.m t "
};
