/* XPM */
static char *c73e411252c34fc2f6b71cdd4e25e653DI8VmaQ8hIx64WoY[] = {
/* columns rows colors chars-per-pixel */
"64 64 240 2 ",
"   c #1C1B2C",
".  c #15182A",
"X  c #1A1534",
"o  c #1D1B33",
"O  c #1C1E3A",
"+  c #151531",
"@  c #24152A",
"#  c #231C2D",
"$  c #2A182E",
"%  c #3A1D2D",
"&  c #231C33",
"*  c #2B1C32",
"=  c #221C3A",
"-  c #2C1C38",
";  c #3D1D32",
":  c #331C33",
">  c #1C232E",
",  c #1E2233",
"<  c #1D233B",
"1  c #1E293D",
"2  c #39232E",
"3  c #242234",
"4  c #2B2334",
"5  c #24233C",
"6  c #2C223A",
"7  c #252B3C",
"8  c #2B2B3C",
"9  c #282C37",
"0  c #3C2333",
"q  c #3C2A35",
"w  c #3C243A",
"e  c #342C3E",
"r  c #3C2B3B",
"t  c #342638",
"y  c #2B3E3D",
"u  c #273F3F",
"i  c #38373D",
"p  c #28202F",
"a  c #421E34",
"s  c #491C38",
"d  c #441E2D",
"f  c #422434",
"g  c #462837",
"h  c #44243A",
"j  c #432B3B",
"k  c #4B2B3C",
"l  c #492538",
"z  c #51283B",
"x  c #45323D",
"c  c #4C323F",
"v  c #49383E",
"b  c #482A34",
"n  c #32403F",
"m  c #1F2340",
"M  c #252342",
"N  c #2A2543",
"B  c #2C2B44",
"V  c #292946",
"C  c #332A44",
"Z  c #362847",
"A  c #2E3D41",
"S  c #293549",
"D  c #333245",
"F  c #3B3142",
"G  c #323D43",
"H  c #3B3D44",
"J  c #353949",
"K  c #352F53",
"L  c #432D42",
"P  c #4B2D42",
"I  c #482744",
"U  c #522D45",
"Y  c #562B42",
"T  c #463342",
"R  c #4C3342",
"E  c #4E344A",
"W  c #493B46",
"Q  c #523243",
"!  c #53344A",
"~  c #553C4D",
"^  c #59384A",
"/  c #573952",
"(  c #483F50",
")  c #603A51",
"_  c #254343",
"`  c #2B4445",
"'  c #2D4945",
"]  c #2D4A4A",
"[  c #274845",
"{  c #334344",
"}  c #3B4345",
"|  c #33444A",
" . c #3C444A",
".. c #344B4B",
"X. c #3C4C4C",
"o. c #354B45",
"O. c #38514E",
"+. c #3A4C52",
"@. c #374A55",
"#. c #3E545A",
"$. c #395458",
"%. c #2D5049",
"&. c #3C5961",
"*. c #42454C",
"=. c #424C4D",
"-. c #474047",
";. c #55434D",
":. c #444C52",
">. c #494955",
",. c #5D4C53",
"<. c #544955",
"1. c #435253",
"2. c #495354",
"3. c #565254",
"4. c #5C5454",
"5. c #5B5A55",
"6. c #5B545A",
"7. c #5D5C5A",
"8. c #535858",
"9. c #40504F",
"0. c #624D57",
"q. c #635355",
"w. c #635956",
"e. c #63555A",
"r. c #69555B",
"t. c #645D5C",
"y. c #695D5D",
"u. c #6A5C55",
"i. c #725C5F",
"p. c #5E605B",
"a. c #64625D",
"s. c #6A615E",
"d. c #666256",
"f. c #5C5A65",
"g. c #655C62",
"h. c #6B5B61",
"j. c #625D6C",
"k. c #5D6668",
"l. c #656261",
"z. c #6A6363",
"x. c #64636C",
"c. c #6B656C",
"v. c #646B6D",
"b. c #6D6C6C",
"n. c #696866",
"m. c #736D6D",
"M. c #73686B",
"N. c #6D726D",
"B. c #65756B",
"V. c #73726E",
"C. c #77796E",
"Z. c #6C6B74",
"A. c #6B6775",
"S. c #736D73",
"D. c #796F72",
"F. c #746E7A",
"G. c #756674",
"H. c #6D7473",
"J. c #6E7A75",
"K. c #6E757A",
"L. c #6E7C7B",
"P. c #757575",
"I. c #797575",
"U. c #757975",
"Y. c #797976",
"T. c #767679",
"R. c #7A767A",
"E. c #75797A",
"W. c #7A797B",
"Q. c #80767D",
"!. c #817C7E",
"~. c #87777A",
"^. c #846D79",
"/. c #757581",
"(. c #747E83",
"). c #7C7B82",
"_. c #7C7A86",
"`. c #847484",
"'. c #8A7386",
"]. c #837B83",
"[. c #8C7A86",
"{. c #82768A",
"}. c #857A8C",
"|. c #8C7C8A",
" X c #8D7689",
".X c #917B8C",
"XX c #917B89",
"oX c #857D90",
"OX c #977F95",
"+X c #7D828A",
"@X c #7B8A8C",
"#X c #798284",
"$X c #828281",
"%X c #84828B",
"&X c #8D848C",
"*X c #8C898D",
"=X c #898687",
"-X c #91848E",
";X c #96898F",
":X c #8D8492",
">X c #8D8A93",
",X c #8D8C9B",
"<X c #878795",
"1X c #948493",
"2X c #9A8594",
"3X c #948A94",
"4X c #9A8C95",
"5X c #9B879A",
"6X c #948B9A",
"7X c #9A8B9B",
"8X c #968698",
"9X c #8C9199",
"0X c #93929C",
"qX c #9B919C",
"wX c #979095",
"eX c #A1899B",
"rX c #A3939E",
"tX c #9A8DA2",
"yX c #918DA3",
"uX c #839BA4",
"iX c #9C93A1",
"pX c #9398A5",
"aX c #A38BA1",
"sX c #A792A4",
"dX c #8BA3A6",
"fX c #84A3AB",
"gX c #8DA2AB",
"hX c #8CA8A9",
"jX c #94A3AC",
"kX c #94A7AE",
"lX c #8DAAB3",
"zX c #95ABB3",
"xX c #94ADBB",
"cX c #9AA8B6",
"vX c #95B2BA",
"bX c #97B6BA",
"nX c #8DB0B2",
"mX c #A1A8BA",
"MX c #9AB8C5",
"NX c #A4B3C2",
/* pixels */
"7X7X4X&X).x.. D ^.E.bXvX<XeX2X0X7X7X7X7X7X7X7X7X5X3XY.Z., N Z.W.vXcXpX7X5X8X7X6X7X7X7X7X7X7X7X7X5X4XY.J.B o j.I.lXNXpX8X7X8X7X3X",
"1X&X&X].%XA.@ F +X@XdXpX>X8X1X>X&X&X&X&X&X&X&X&X:X[.].R.* e (.#XgXpX,X1X1X-X3X>X-X-X-X-X-X-X-X-X1X%X].].C & K.@XuXjX,X:X3X-X3X>X",
"I.T.T.W.6X}.w / bXdXT.Z.T.T.T.S.U.U.U.U.P.P.P.P.U.R.wX3Xl T zXbXE.E.P.P.P.P.I.P.P.P.P.P.P.P.P.P.P.T.3XeXT w pXbXE.E.P.P.I.P.P.P.",
"P.U.P.R.6X`.0 ^ vXjXW.P.Y.N.T.R.I.U.U.I.U.U.U.U.P.D.>X&Xz c kXcXU.U.P.U.U.U.I.U.U.U.U.U.U.U.U.U.C.P.%X2XQ f 0XvXW.P.Y.U.P.Y.U.T.",
"U.E.P.P.].M.% ^ ,X%XR.Y.U.V.U.R.U.U.U.U.U.U.U.U.Y.I.).S.g g :X,XI.U.U.U.U.U.U.T.U.U.U.U.U.U.U.U.Y.U.W.Q.T % '.yX!.m.Y.U.P.E.U.T.",
"H.U.P.V.S.g.q <.sX|.T.H.P.Y.U.U.R.R.R.R.R.R.R.R.P.U.P.l.i T OXaXI.P.T.U.T.T.U.U.R.R.R.R.R.R.R.R.V.Y.N.b.W q '.sXW.S.U.U.P.E.U.T.",
"E.U.Y.V.a.7.i 1.2X&XW.U.U.P.P.U.U.U.U.U.U.U.U.U.Q.N.t.w...>.2X1XY.P.R.P.U.Y.P.U.P.P.P.P.P.P.P.P.Y.P.w.7.=.H }.2XW.P.U.U.P.R.U.T.",
"W.P.I.V.5.8.{ #.3X3XI.S.R.U.U.U.U.U.U.U.U.U.U.U.F.B.u.w.[ @.1X>XU.P.U.P.I.Y.V.U.U.U.U.U.U.U.U.U.K.I.d.5. .G +XwXE.U.U.I.P.P.U.P.",
"U.U.P.m.y.5.A &.7X1XU.B.I.I.J.T.T.Y.P.U.P.E.P.I.7.t.w.7.' O.<X5XP.U.U.T.R.R.U.T.E.P.R.I.U.E.T.I.E.H.a.q.Q a  XqXQ.P.U.U.I.R.T.U.",
"P.T.R.V.a.3.i <.3X1XW.J.I.I.U.R.U.Y.U.Y.E.E.P.S.t.z.w.7.i *.:X2XY.Y.E.U.I.U.U.Y.P.P.Y.U.U.U.P.R.I.P.z.t.T 0 '.eX].U.U.P.U.R.U.U.",
"W.R.W.N.p.4.0 ! qX-XR.H.I.I.U.P.U.Y.U.Y.U.S.l.t.I.I.t.e.q T 1X4XP.T.U.U.U.P.P.P.Y.R.R.P.Y.W.T.W.Y.V.l.7.X.| %XrXR.P.P.P.I.I.V.U.",
"D.b.P.n.4.,.0 ! 3X[.].R.R.Y.V.m.N.V.m.m.V.m.z.y.P.m.4.0.f j |.-XW.W.E.U.U.P.P.P.P.m.U.P.P.P.V.V.V.m.4.8...` (.&X_.).U.P.U.R.P.U.",
"w.7.l.,.g h @ D W.].4X;XW.N.a.y.t.t.t.t.a.t.w.w.f.4.k j @ 4 T.].7X*X).U.Y.R.Y.W.t.t.U.Y.s.w.t.t.7.h.k f #   A.}.3X3X].P.T.W.W.Y.",
"5.5.5.;.h Z X S x.S.[.[.J.k.3.,.6.6.3.3.7.5.5.5.g.,.h w & 7 k.x.[.`.G.M.M.G.c.x.6.3.v.b.q.q.r.4.8.g.j w - & f.Z.`.[.R.G.A.A.A.x.",
"` i 2 0 @ = + O   # 0 q { A # &     # 3 G { { { f 0 @ & X + 3   0 0 0 0 f t #   & .   # : f 0 2 y { > & = X o . 0 f 0 0 4   & o ",
"$.>.R E B S B Z B C E E #.@.N N 5 = 7 S #.#.#.+.Y R C S K Z Z B k R Q Q ! E C B = M 5 C / / U ! :.+.G B Z K C D ! Q P E t o N V ",
"MXcXtX8X8X8X8X5X7X8X7X1X7X>XT.Z.O 9 D.).vXxX6X;X8XtX2X5X7X1X8X8XY.I.1X7X7X3XW.V.V > n.Y.lXMXtX2X5X5X7X7X5X5X5X5X2X3X]./.D . x.Y.",
"kXpX6X8X3X3X3X3X:X:X6X-X3X&X].S.- 4 E.@XkXjX6X&X6X&X-X3X1X3X3X&XV.P.&X3X1X&X).P.Z   H.@XdXcX7X&X3X3X3X3X3X3X3X3X3X-X].).F @ c.W.",
"L.T.I.I.I.P.P.I.T.T.T.P.R.].3X%Xh ( vXhX+XS.R.R.P.P.Y.U.Y.P.7.6.t.t.P.R.R.).3X3XU F jXzX+XT.T.E.P.P.U.U.P.P.P.P.I.W.=X4X/ : c.P.",
"P.P.I.I.U.U.U.I.U.U.U.U.R.W.3X].; E cXdXR.m.W.W.P.P.P.P.U.P.z.z.g.l.P.U.U.T.&X&Xz h pXcX).m.U.E.U.U.U.U.U.U.U.U.P.P.=X4X) a G.E.",
"I.I.U.U.U.E.T.T.P.P.P.P.P.P.W.v.f ! tX<XI.C.J.S.R.P.Y.U.6.g.&X3XR.P.Y.U.U.P.].R.c l :XpXW.P.U.P.U.U.U.U.U.U.U.U.Y.P.Y.~.Q % M.Y.",
"R.I.T.U.T.T.U.U.R.I.P.P.U.U.Y.b.2 ! 5X&XU.U.U.).U.R.P.P.z.c.&X3XW.U.P.P.P.U.P.S.i j .X6XR.P.U.Q.T.T.T.T.T.T.T.T.U.P.V.m.W q z.U.",
"U.U.T.U.U.U.U.P.P.S.Y.U.Y.m.a.3.H :.3X&XY.Y.P.T.U.P.6.g.3X4XR.T.P.U.U.Y.I.R.t.t. .H |.7XW.T.I.U.U.U.U.U.U.U.U.U.E.I.z.t.*.G v.W.",
"P.U.E.U.I.I.U.U.W.P.E.P.R.m.t.e.| O.9X-XT.R.D.E.U.P.z.z.&X3XP.W.U.Y.U.R.P.R.5.a.| { =XqXT.T.R.K.U.U.U.U.U.U.U.U.T.Y.s.8.X...k.Y.",
"I.P.U.P.U.R.S.E.U.I.R.P.T.b.7.5.' X.6X1XR.Y.E.U.U.U.H.N.Y.Y.P.U.U.P.U.E.U.I.t.w.c 0 -X6XR.T.I.P.U.U.U.U.U.T.P.T.T.I.z.7...y H.R.",
"I.P.Y.U.T.T.U.T.P.U.T.T.W.P.t.w.' 1.3X3XR.T.Y.U.I.Y.W.E.U.P.P.U.U.P.U.T.P.U.t.w.k 0 XX3XR.R.P.P.U.E.U.U.E.U.U.R.E.P.s.7.X.` v.R.",
"T.P.P.U.P.P.Y.I.Y.Y.E.U.E.P.t.e.[ 1.<X3XR.I.I.U.I.P.U.U.I.Y.E.U.Y.U.Y.T.T.E.t.e.z f -X6XW.P.a.7.P.U.U.U.Y.U.U.I.E.P.z.7.=.{ v.Y.",
"W.R.R.W.P.N.E.m.V.V.N.N.P.m.e.q.| :.<X|.].R.U.Y.I.P.U.U.P.P.P.N.V.V.P.P.U.I.e.0.k q |.&X!.R.l.a.m.V.V.V.I.P.V.P.N.m.y.e.*.G v.W.",
"3X-XY.N.t.l.E.I.t.t.p.a.s.q.x q   9 _.].6X*XW.T.I.Y.W.U.z.t.t.a.a.t.w.t.t.7.x l @ # Z._.-X;XR.U.a.a.t.t.z.g.t.a.t.y.v r 4   x.).",
"1XXXK.k.r.h.Z.S.f.6.7.4.r.;.j t & 6 Z.F.1X-XI.S.D.S.Z.v.f.4.6.6.e.y.q.w.7.6.r h 3 7 k.F.-X-XR.J.p.7.4.6.4.4.6.6.r.r.x t 6 & f.F.",
"j T o.{ k h 3 & 6 3 3 4 j h $ & = o 8 p j k g j k q 4 3 3 5 & & 0 f f q }  .& * o + 5 * j x H | { y 9 3 3 3 3 4 2 q : & = + 5 3 ",
"l P ..` k I 3 5 = O 3 6 L I 6 M M V , 4 j k z l Y I 6 O O O O 7 P Y k x  .@.1 M N N 6 * I L  .] +.| 7 O O = = 5 c j e = N V 5 3 ",
"2X1X8X&X3X%XP.x.X e m.K.xXxXoX2X1X1X1X1X1X1X1X1XOX*XP.x.< 5 G.U.xXgX,X1X1X1X:X:X1X1X1X1X1X1X1X1X6X&XI.P.B o f.P.fXcX<X:X1X1X1X:X",
"1X3X4X3X0X&X].c.* e #X@XcXmX6X3X3X3X3X3X3X3X3X3X8X&X!.F.4 6 /.L.cXjX0X6X3X3X3X3X3X3X3X3X3X3X3X6X5X-XW.).e o A.).kXcX9X6X3X3X3X3X",
"W.W.T.S.R.].3X].: *.zXdX(.R.R.E.I.I.I.I.I.I.I.I.E.].3X8Xh L jXnX#X(.Y.I.I.R.R.R.U.U.U.U.T.T.U.U.R.W.&X5X! r 9XbX#X#XT.R.I.R.I.R.",
"U.Y.U.U.T.W.6X].l <.NXjXY.m.U.K.P.P.P.P.P.P.P.P.V.I.<X:Xz R cXxXU.U.U.P.P.U.I.I.P.P.P.P.U.U.U.U.N.U.:XeXY f 0XMXW.P.U.P.P.Y.P.I.",
"V.U.U.U.U.P.].c.d E tX<XY.C.I.T.U.U.U.U.U.U.U.U.U.R.(.R.l g 6XyXR.R.U.U.U.U.U.U.U.U.U.U.U.U.U.U.~.P.(.+Xv 2  XyX].S.Y.E.U.E.U.U.",
"I.I.U.P.U.P.Y.n.f ! aX:XY.V.P.Q.T.T.T.T.T.T.T.T.P.I.U.v.x j 1X5XR.R.T.T.T.T.T.T.T.T.T.T.T.T.R.R.I.P.H.P.R f .X7X].P.Y.U.U.T.T.T.",
"I.U.Y.U.Y.m.z.4.f Q 5X&XR.U.U.I.U.U.U.U.U.U.U.U.R.V.a.7.} *.8X-XU.U.P.P.P.U.U.U.T.T.T.T.T.T.T.T.K.P.n.i.k 0 '.wXY.P.U.P.I.U.T.U.",
"E.P.T.P.Y.m.t.,.0 R qX>XT.T.Y.U.U.U.U.U.U.U.U.U.R.N.u.w.{ @.6X*XU.U.U.I.I.I.U.P.U.U.U.U.U.U.U.U./.I.u.q.T r '.4XW.U.U.P.I.P.R.P.",
"U.U.T.U.Y.P.t.w.n >.6X1XT.U.P.R.U.U.U.U.U.U.U.U.R.N.l.r.g P OX,XU.U.T.T.T.U.P.P.U.U.U.U.U.U.U.U.D.U.l.7.X.G '.7XW.S.W.P.I.U.U.U.",
"U.U.T.U.Y.V.7.4._ 1.6X1XI.Y.P.T.U.U.U.U.U.U.I.U.R.N.t.q.r T 1X,XU.U.U.T.T.U.U.P.U.U.U.U.U.U.U.U.U.U.y.t...| |.7X].P.U.P.U.U.U.P.",
"T.T.T.U.Y.V.7.5.[ 1.6X2XI.I.U.E.U.U.U.U.U.U.U.U.Y.N.t.w.n  .8X8XU.U.U.T.T.U.U.U.U.U.U.U.U.U.U.U.U.P.y.w.o.[ %X7XU.P.Y.U.R.U.U.Y.",
"T.T.T.U.Y.P.t.5.y =.7X1XI.U.U.U.T.T.T.T.T.T.R.R.E.H.y.7.o...8X5XP.U.U.U.T.T.T.T.T.T.T.T.T.T.T.T.W.P.s.y.} G |.7XY.U.U.P.U.U.P.U.",
"P.U.U.P.Y.P.t.4.q ;.4X-XR.U.U.U.U.U.U.U.U.U.U.U.U.V.w.7.' ..>X5XU.U.U.U.U.R.R.P.U.U.U.U.U.U.U.U.I.P.s.w.i r  X7X).P.t.t.m.Y.Y.T.",
"R.I.U.P.R.D.r.0.; E 3X%X).W.I.P.I.I.I.I.I.I.I.I.Y.V.y.6.| +.>X4X).R.R.U.U.U.U.U.I.I.I.I.I.I.I.I.I.P.t.q.x h '.6XW.I.t.t.b.I.I.P.",
"t.t.t.t.t.q.R g * F ].).&X%XR.V.t.t.g.t.t.t.t.t.t.4.R L 3 8 F.Y.:X].R.U.U.U.U.U.g.g.g.g.t.t.t.t.y.t.W P * $ G.).&X3XR.m.z.a.t.l.",
"t.t.t.t.t.,.g ; + 8 T.R.3X8XR.V.t.t.t.t.t.t.t.t.u.4.k w * 6 F.U.7X:X).U.U.U.U.P.w.w.w.w.w.w.w.w.w.4.k h & o x.E.:XwX!.P.z.t.4.t.",
"k g k k g j - = o 5 7 e / P e 8 7 - M 7 } o.%.+.P w 6 O O m B C ..=.T R U E C V 7 N 5 7 H o.%.+.T j 6 & O 5 V B ..:.W k Q P 6 5 ",
"0 0 f f j w & & & o   @ w : *   = o , > |  .A y f 0 * & o o & & G H q 0 0 w #   = o , > G { A ` q 0 * & o & & & A H r ; l w * & ",
"|.|. X X.X`.c.A.}.{.{.}.|.`.A.f.O 8 g.Z.fXfX%X=X[.|.}.}.}.}.{.`.oX}.'.[.[.].Z.x.N , 6.x.fXfX<X!.[.|.}.}.}.}.{.`.+X:X|.'..X X}.{.",
"6X7X6X7XsX3XR.$X7X3XqXqXqX3X|.A.& 8 _.<XnXvX0X5XwX7X7X7XqXqXqXqX7X7XqXqX7X3X].R.6 # F.@XnXvXiX4X7X4X7XqXiXiXiXqX6XqX7X7X7XqX7XiX",
"U.Y.R.R.].P.t.a.].T.W.R.R.].&X].0 T gXuX%X].T._.W.Y.R.I.R.R.R.R.Y.R.W.R.R.].|.&Xk e uXfX+X].)._.W.R.R.R.R.R.R.R.R.W.R.R.R.R.R.R.",
"P.U.U.P.I.b.7.d.U.P.Y.U.I.].3X-Xd E NXzXW.D.U.).U.U.U.R.I.U.U.U.P.P.U.P.I.].3X7Xk L cXbXW.I.T.R.T.T.T.T.T.T.U.U.I.I.U.U.P.P.P.P.",
"P.P.U.P.U.Y.m.m.t.z.U.P.U.U.W.M.l P 7X,XK.E.U.P.P.U.U.U.U.U.U.U.Y.P.Y.U.P.P.W.I.P 0 1XiXT.U.U.I.P.U.U.I.U.U.U.U.P.P.U.U.U.U.U.U.",
"T.T.Y.P.U.W.I.T.w.s.I.P.U.E.Y.b.s R 4X;XK.).P.C.I.I.U.U.U.U.U.T.R.P.T.U.E.U.W.N.Y 0 XX4X).R.I.C.U.U.U.U.P.U.U.U.Y.T.R.Y.U.T.T.U.",
"P.P.R.Y.U.U.U.I.P.N.U.I.U.P.s.5.`  .qX1XR.R.W.P.U.U.U.R.U.U.R.P.P.U.E.T.I.Y.a.a.} ' -X8X(.R.P.I.R.U.U.R.U.U.R.I.J.R.I.U.I.E.J.I.",
"W.W.U.P.T.U.P.T.R.U.T.R.E.P.y.5.' :.3X1XI.U.W.U.E.T.P.P.U.T.T.T.U.Y.Y.U.U.U.7.t.o.] &X8XW.S.E.Y.T.T.E.W.U.P.U.T.E.R.R.E.I.Y.E.I.",
"U.W.P.P.W.W.J.E.R.U.T.P.E.P.t.7.u 1.>X3XR.I.U.I.U.T.T.T.W.Y.U.U.U.U.U.P.U.U.7.t.' ] &X4XW.S.E.U.E.H.U.T.Y.W.Y.U.T.P.U.U.P.P.P.P.",
"H.U.U.U.I.I.P.U.I.U.I.I.W.P.h.e.| 1.>X&XR.R.P.Y.P.U.Y.Y.P.P.U.U.U.Y.Y.I.Y.R.t.r.+...&X>XW.I.U.U.Y.P.P.P.P.U.R.I.R.U.U.E.I.I.Y.Y.",
"Y.U.U.P.l.z.P.U.z.a.s.y.l.6.c k 3 8 _.].&X=XU.U.R.P.Y.I.l.z.I.I.a.a.y.y.a.t.v k 4 > T.+X%X-XU.P.I.R.!.I.z.l.m.R.z.a.a.a.a.y.z.l.",
"I.V.U.H.7.l.I.P.r.t.r.w.k.3.j h & 8 /.`.7X4X].W.Y.P.Y.P.7.l.P.P.t.w.r.w.t.7.x h - 3 A.(.3XeX#XR.P.U.Y.P.l.a.b.Y.l.k.w.w.t.t.e.7.",
"~ W 1.1.o.=.2.=.R R c v =.{ * & = O D r ~ ~ ~ W X.1.1.1.X.X.X.=.R R c v *.X.4 * = o D e ~ ^ X.1.1.X.X.9.X.X.1.1.o.=.v k *.*.F e ",
"a r A ` [ | ' _ s f f q | A O O O O   @ 0 ; h f _ ] _ _ ] ' _ ] h a a q G | < O O O o   s ; _ [ [ _ [ ] [ [ [ _ [ ..q ; } | 5 o "
};
